<svg width="80" height="80" viewBox="0 0 80 80" fill="none"
    xmlns="http://www.w3.org/2000/svg">
    <path d="M59.9616 52.4823L50.696 36.4086L60.136 20.013H57.5296L49.3984 34.141L41.0112 19.579C40.9116 19.4072 40.7687 19.2645 40.5967 19.1653C40.4247 19.0661 40.2297 19.0139 40.0312 19.0139C39.8327 19.0139 39.6377 19.0661 39.4657 19.1653C39.2937 19.2645 39.1508 19.4072 39.0512 19.579L20.1328 52.4375L19.864 52.9708H22.4416L30.5856 38.822L32.0256 41.2738L25.5792 52.4567L25.4544 52.9692H27.9008L33.3408 43.5206L38.8944 52.9692H41.1632L46.6672 43.4101L52.1664 52.974H54.6256L54.528 52.58L47.968 41.1537L49.3968 38.6747L57.6288 52.974H60.0688L59.9968 52.5928L59.9616 52.4823ZM45.3584 41.1489L40.0208 50.4117L34.6368 41.2546L38.1456 35.1595H41.9088L45.3584 41.1489ZM46.6672 38.8813L41.0144 29.0596C40.9148 28.8877 40.7719 28.745 40.5999 28.6459C40.4279 28.5467 40.2329 28.4945 40.0344 28.4945C39.8359 28.4945 39.6409 28.5467 39.4689 28.6459C39.2969 28.745 39.154 28.8877 39.0544 29.0596L33.32 39.0254L31.88 36.5672L40.04 22.412L48.0992 36.4086L46.6672 38.8813Z" fill="black"/>
    <path d="M75.5411 39.6436V39.9639C75.5411 49.3984 71.7966 58.4465 65.1314 65.1177C58.4662 71.7889 49.4263 75.5367 40.0003 75.5367C30.5743 75.5367 21.5343 71.7889 14.8691 65.1177C8.20394 58.4465 4.45947 49.3984 4.45947 39.9639V39.6436H6.41307V39.9639C6.32588 44.4346 7.13035 48.8779 8.77942 53.0338C10.4285 57.1897 12.8891 60.9746 16.0172 64.1673C19.1452 67.3599 22.8781 69.8961 26.9972 71.6274C31.1163 73.3588 35.5391 74.2506 40.0067 74.2506C44.4743 74.2506 48.897 73.3588 53.0161 71.6274C57.1353 69.8961 60.8681 67.3599 63.9962 64.1673C67.1243 60.9746 69.5848 57.1897 71.2339 53.0338C72.883 48.8779 73.6875 44.4346 73.6003 39.9639V39.6436H75.5411Z" fill="black"/>
    <path d="M80 39.6436V39.9639C80 50.5821 75.7857 60.7654 68.2843 68.2737C60.7828 75.7819 50.6087 80 40 80C29.3913 80 19.2172 75.7819 11.7157 68.2737C4.21427 60.7654 0 50.5821 0 39.9639L0 39.6436H1.9472V39.9639C1.91466 44.9862 2.87488 49.9654 4.77259 54.6148C6.6703 59.2643 9.46802 63.4922 13.0047 67.0551C16.5414 70.618 20.7472 73.4456 25.3801 75.3751C30.0129 77.3047 34.9813 78.298 39.9992 78.298C45.0171 78.298 49.9855 77.3047 54.6183 75.3751C59.2512 73.4456 63.457 70.618 66.9937 67.0551C70.5304 63.4922 73.3281 59.2643 75.2258 54.6148C77.1235 49.9654 78.0837 44.9862 78.0512 39.9639V39.6436H80Z" fill="black"/>
    <path d="M5.70225 31.6554C5.7013 32.1234 5.5618 32.5805 5.30138 32.9691C5.04096 33.3577 4.67129 33.6604 4.2391 33.8388C3.80691 34.0172 3.33158 34.0634 2.87317 33.9715C2.41476 33.8796 1.99384 33.6538 1.6636 33.3226C1.33335 32.9914 1.1086 32.5696 1.01775 32.1106C0.926888 31.6516 0.973999 31.176 1.15312 30.7437C1.33225 30.3115 1.63536 29.9421 2.02414 29.6823C2.41292 29.4224 2.86994 29.2837 3.33745 29.2837C3.64835 29.2839 3.95615 29.3454 4.24328 29.4648C4.53041 29.5841 4.79123 29.7589 5.01085 29.9791C5.23046 30.1994 5.40456 30.4608 5.52319 30.7484C5.64183 31.036 5.70267 31.3443 5.70225 31.6554Z" fill="black"/>
    <path d="M79.0272 31.6554C79.0263 32.1234 78.8868 32.5805 78.6263 32.9691C78.3659 33.3577 77.9963 33.6604 77.5641 33.8388C77.1319 34.0172 76.6565 34.0634 76.1981 33.9715C75.7397 33.8796 75.3188 33.6538 74.9885 33.3226C74.6583 32.9914 74.4336 32.5696 74.3427 32.1106C74.2518 31.6516 74.2989 31.176 74.4781 30.7437C74.6572 30.3115 74.9603 29.9421 75.3491 29.6823C75.7379 29.4224 76.1949 29.2837 76.6624 29.2837C76.9733 29.2839 77.2811 29.3454 77.5682 29.4648C77.8554 29.5841 78.1162 29.7589 78.3358 29.9791C78.5554 30.1994 78.7295 30.4608 78.8481 30.7484C78.9668 31.036 79.0276 31.3443 79.0272 31.6554Z" fill="black"/>
    <path d="M8.9314 15.8381L10.1042 18.0401L11.3506 16.4227L8.9314 15.8381ZM9.09139 15.9566L11.2162 16.4771L10.1218 17.8896L9.09139 15.9566Z" fill="black"/>
    <path d="M8.9314 15.8381L10.1058 18.0417L11.3506 16.4243L8.9314 15.8381ZM11.069 16.522L10.1314 17.7375L9.2466 16.0816L11.069 16.522ZM8.9314 15.8381L10.1058 18.0417L11.3506 16.4243L8.9314 15.8381ZM11.069 16.522L10.1314 17.7375L9.2466 16.0816L11.069 16.522ZM8.9314 15.8381L10.1058 18.0417L11.3506 16.4243L8.9314 15.8381ZM11.069 16.522L10.1314 17.7375L9.2466 16.0816L11.069 16.522Z" fill="black"/>
    <path d="M8.9314 15.8381L10.1042 18.0401L11.3506 16.4227L8.9314 15.8381ZM9.09139 15.9566L11.2162 16.4771L10.1218 17.8896L9.09139 15.9566Z" fill="black"/>
    <path d="M8.9314 15.8381L10.1058 18.0417L11.3506 16.4243L8.9314 15.8381ZM11.069 16.522L10.1314 17.7375L9.2466 16.0816L11.069 16.522ZM8.9314 15.8381L10.1058 18.0417L11.3506 16.4243L8.9314 15.8381ZM11.069 16.522L10.1314 17.7375L9.2466 16.0816L11.069 16.522ZM8.9314 15.8381L10.1058 18.0417L11.3506 16.4243L8.9314 15.8381ZM11.069 16.522L10.1314 17.7375L9.2466 16.0816L11.069 16.522Z" fill="black"/>
    <path d="M14.1839 15.6666C14.0827 15.5899 13.9666 15.5353 13.8431 15.5064L8.57108 14.4014C8.38441 14.3622 8.19026 14.3807 8.01428 14.4543C7.83991 14.5299 7.68763 14.6486 7.57175 14.7993C7.45587 14.95 7.3802 15.1278 7.35188 15.3159C7.32073 15.5044 7.35043 15.6979 7.43668 15.8684L9.82388 20.7143C9.87881 20.8283 9.95996 20.9277 10.0607 21.0042C10.18 21.1048 10.3319 21.1583 10.4879 21.1547C10.5497 21.1549 10.6114 21.1484 10.6719 21.1355C10.8889 21.0925 11.0825 20.9711 11.2159 20.7944C11.3106 20.6775 11.3695 20.5357 11.3855 20.386C11.3968 20.2267 11.363 20.0674 11.2879 19.9264L10.8479 19.0905L12.5599 16.8821L13.4655 17.1063C13.6191 17.147 13.7814 17.1403 13.9311 17.0871C14.0735 17.0421 14.1976 16.9522 14.2847 16.8308C14.4202 16.6571 14.4858 16.4388 14.4687 16.2191C14.4667 16.1116 14.4403 16.006 14.3916 15.9103C14.3428 15.8146 14.2728 15.7312 14.1871 15.6666H14.1839ZM10.1039 18.0399L8.93588 15.8379L11.3551 16.4225L10.1039 18.0399Z" fill="black"/>
    <path d="M30.1121 1.38041L29.0305 4.00998L29.7057 6.06143C29.7519 6.17525 29.7729 6.29773 29.7674 6.42046C29.7619 6.54319 29.7299 6.66327 29.6737 6.77247C29.5591 6.97752 29.3681 7.12891 29.1425 7.19366C29.0307 7.23193 28.9134 7.25194 28.7953 7.25291C28.6756 7.25518 28.557 7.23056 28.4481 7.18084C28.3374 7.1288 28.2394 7.05307 28.1612 6.95898C28.083 6.86489 28.0263 6.75476 27.9953 6.63635L27.3137 4.5849L24.8929 3.11637C24.7103 3.02084 24.5716 2.8585 24.5057 2.66317C24.47 2.55986 24.4568 2.4501 24.467 2.34126C24.4772 2.23242 24.5106 2.12704 24.5649 2.0322C24.6123 1.9332 24.6793 1.84485 24.7618 1.77247C24.8443 1.70008 24.9406 1.64516 25.0449 1.61102C25.156 1.57448 25.2739 1.56372 25.3898 1.57953C25.5056 1.59535 25.6164 1.63733 25.7137 1.7023L27.7201 2.93861L28.5969 0.749438C28.6368 0.639031 28.7005 0.538763 28.7834 0.455737C28.8664 0.372712 28.9666 0.308962 29.0769 0.269004C29.1571 0.244141 29.2409 0.232248 29.3249 0.233773C29.4589 0.236376 29.5909 0.267492 29.7121 0.325055C29.8147 0.368755 29.9066 0.434403 29.9812 0.517397C30.0558 0.60039 30.1114 0.698719 30.1441 0.805489C30.2085 0.997259 30.197 1.20644 30.1121 1.39002" fill="black"/>
    <path d="M53.293 1.78218C53.2066 2.10247 52.9586 2.44678 52.269 2.26262L50.189 1.67809L49.9074 2.67739L51.8274 3.20907C52.509 3.39964 52.549 3.81442 52.4674 4.1299C52.4471 4.22843 52.404 4.3208 52.3414 4.39954C52.2789 4.47828 52.1987 4.54116 52.1074 4.58311C51.8948 4.65595 51.664 4.65595 51.4514 4.58311L49.5314 4.05143L49.2306 5.15483L51.3218 5.73295C51.5438 5.78153 51.7426 5.90473 51.885 6.08206C51.9404 6.16773 51.9753 6.26514 51.9866 6.36658C51.998 6.46803 51.9857 6.57074 51.9506 6.66659C51.9301 6.76333 51.8875 6.85401 51.8262 6.93153C51.7648 7.00904 51.6864 7.07129 51.597 7.11339C51.5014 7.15396 51.3984 7.17414 51.2946 7.17265C51.1729 7.16985 51.052 7.15211 50.9346 7.1198L47.9586 6.29185C47.8473 6.26895 47.742 6.22328 47.6492 6.15769C47.5564 6.09209 47.4781 6.00801 47.4194 5.91071C47.3584 5.80223 47.3269 5.67964 47.3282 5.55519C47.3286 5.45256 47.3443 5.35056 47.3746 5.25251L48.6546 0.630743C48.7056 0.407708 48.8424 0.2138 49.0354 0.0910557C49.1362 0.0403261 49.2461 0.0101026 49.3587 0.00213126C49.4713 -0.00584005 49.5844 0.00859884 49.6914 0.0446137L52.6738 0.872561C52.8937 0.918335 53.091 1.03886 53.2322 1.21367C53.2908 1.29533 53.3287 1.39013 53.3423 1.48978C53.356 1.58943 53.3451 1.69092 53.3106 1.78539" fill="black"/>
    <path d="M72.1584 15.2983C72.1751 15.423 72.1591 15.55 72.1119 15.6666C72.0667 15.781 71.9916 15.8811 71.8943 15.9565C71.7552 16.081 71.5769 16.153 71.3903 16.1598H71.3584C71.2781 16.1637 71.198 16.1491 71.1242 16.1172C71.0504 16.0853 70.9849 16.0369 70.9327 15.9757C70.8803 15.9152 70.8381 15.8465 70.8079 15.7723C70.7659 15.6697 70.7374 15.562 70.7231 15.452C70.7231 15.412 70.6975 15.3207 70.6639 15.1702C70.6264 15.0028 70.5667 14.8412 70.4863 14.6897C70.3934 14.5134 70.2813 14.348 70.1519 14.1965C70.0035 14.0072 69.8067 13.8616 69.5824 13.7753C69.5067 13.7471 69.4249 13.7395 69.3453 13.7533C69.2658 13.7671 69.1913 13.8017 69.1295 13.8538C69.0974 13.8767 69.0703 13.906 69.0499 13.9399C69.0295 13.9738 69.0163 14.0115 69.0111 14.0507C69.007 14.1815 69.0315 14.3117 69.0831 14.4319C69.1853 14.6826 69.3035 14.9265 69.4367 15.1622C69.6778 15.5823 69.8607 16.0332 69.9807 16.5026C70.0631 16.8246 70.0587 17.1628 69.968 17.4826C69.8644 17.7668 69.6851 18.0171 69.4495 18.2065C69.1594 18.4687 68.7899 18.626 68.3999 18.6533C68.3493 18.6568 68.2986 18.6568 68.248 18.6533C67.891 18.6495 67.5402 18.5594 67.2255 18.3907C66.7965 18.1642 66.416 17.8557 66.1056 17.4826C65.8113 17.1364 65.5584 16.7569 65.3519 16.352C65.1776 16.0154 65.0644 15.6505 65.0175 15.2743C65.0071 15.1517 65.0229 15.0283 65.064 14.9123C65.1308 14.7716 65.2342 14.6515 65.3635 14.5647C65.4927 14.4779 65.6429 14.4276 65.7984 14.4191C65.8837 14.4145 65.969 14.4286 66.0483 14.4604C66.1276 14.4922 66.199 14.541 66.2576 14.6032C66.3112 14.6688 66.3554 14.7416 66.3888 14.8194C66.4265 14.9192 66.4528 15.0228 66.4671 15.1285C66.5119 15.3805 66.5939 15.6245 66.7103 15.8524C66.8305 16.0934 66.9828 16.317 67.1631 16.517C67.3209 16.7251 67.5283 16.8902 67.7663 16.9974C67.8405 17.0279 67.9219 17.0368 68.0009 17.0229C68.0799 17.009 68.1534 16.9729 68.2128 16.9189C68.2551 16.8727 68.2842 16.8158 68.2969 16.7543C68.3096 16.6929 68.3054 16.6291 68.2847 16.5698C68.1967 16.2516 68.0619 15.9483 67.8848 15.6698C67.6383 15.2395 67.4464 14.78 67.3136 14.3022C67.2248 13.9814 67.2292 13.642 67.3264 13.3237C67.4375 13.0332 67.6229 12.777 67.8639 12.5806C68.159 12.3233 68.5296 12.1687 68.92 12.1402C69.3365 12.1131 69.7528 12.1971 70.1263 12.3836C70.5481 12.5934 70.9214 12.889 71.2223 13.2516C71.4829 13.5529 71.7034 13.8866 71.8783 14.2445C72.0334 14.5682 72.1268 14.9179 72.1535 15.2759" fill="black"/>
</svg>
